<svg width="251" height="250" viewBox="0 0 251 250" fill="none" xmlns="http://www.w3.org/2000/svg">
<path d="M121.367 3.13942C125.069 2.35476 128.806 1.36787 132.605 0.792754C145.475 -1.15533 157.984 0.5846 170.166 4.94017C172.276 5.69424 174.335 6.69296 176.261 7.8404C193.084 17.8602 207.586 30.4533 218.891 46.5588C219.099 46.8549 219.426 47.3439 219.641 47.3154C221.485 47.0704 222.204 48.5372 223.046 49.6165C224.629 51.6463 226.101 53.7716 227.496 55.9361C230.521 60.626 233.991 65.1209 236.341 70.1353C241.509 81.1671 246.412 92.4122 248.479 104.511C251.474 122.05 251.153 139.497 245.555 156.609C243.354 163.339 241.633 170.252 239.032 176.82C235.702 185.231 230.677 192.797 225.595 200.251C215.15 215.571 201.053 226.53 184.336 234.267C180.244 236.16 176.046 237.83 171.981 239.778C164.043 243.581 155.357 244.774 147.02 247.188C136.565 250.216 126.055 250.164 115.403 248.802C99.7555 246.803 84.6455 242.892 70.1123 236.717C56.4535 230.914 44.8018 222.353 34.3549 211.871C26.9851 204.476 21.495 195.889 16.94 186.67C10.7395 174.12 6.30263 160.876 2.79531 147.349C-1.37295 131.272 -0.688368 115.201 3.57963 99.2329C8.90298 79.317 17.3903 60.7761 29.4666 44.1347C41.2038 27.9606 56.8642 16.4435 75.3915 8.82417C85.4955 4.66877 96.0664 2.69497 106.845 1.68861C110.613 1.33694 114.448 1.53258 118.241 1.71572C119.318 1.76784 120.357 2.65605 121.367 3.13942ZM109.807 244.047C108.343 243.029 106.684 242.205 105.452 240.958C100.93 236.382 96.5508 231.665 92.1108 227.007C91.829 226.712 91.5225 226.324 91.1635 226.234C88.06 225.456 84.9419 224.737 81.477 223.916C82.4235 224.981 83.1172 225.84 83.8921 226.619C87.9693 230.716 92.1084 234.753 96.114 238.919C96.7218 239.551 96.7419 240.748 97.1666 242.108C100.515 242.744 104.456 243.507 108.405 244.222C108.848 244.302 109.341 244.111 109.81 244.045C110.363 244.28 110.898 244.657 111.471 244.728C115.571 245.234 119.675 245.709 123.784 246.125C125.46 246.295 127.154 246.292 128.844 246.368C128.844 246.103 128.864 246.036 128.841 246.012C123.288 240.334 117.743 234.648 112.151 229.009C111.762 228.616 111.035 228.43 110.447 228.384C107.665 228.167 104.875 228.063 102.092 227.856C100.483 227.736 98.8822 227.498 97.2775 227.312C97.1895 227.448 97.1013 227.584 97.0134 227.72C101.283 231.93 105.553 236.138 109.819 240.351C110.35 240.876 110.987 241.351 111.345 241.98C112.034 243.19 111.268 244.156 109.807 244.047ZM121.053 4.88665C120.037 4.88665 119.077 5.06526 118.212 4.85607C114.289 3.90774 110.395 4.50057 106.516 4.99923C96.3837 6.30236 86.3816 8.08922 76.825 11.983C59.1404 19.188 44.2079 30.1506 32.8263 45.3892C21.626 60.3852 13.834 77.2709 8.32023 95.1599C5.57429 104.068 3.77493 113.18 3.49971 122.529C3.15951 134.085 5.05929 145.295 9.13755 156.11C11.9478 163.561 15.3432 170.753 19.7196 177.42C24.8317 185.209 31.823 191.282 38.8307 197.221C48.1083 205.083 58.7077 210.868 69.8329 215.756C88.6713 224.034 108.265 226.729 128.581 223.806C148.908 220.882 167.89 214.092 185.566 203.562C208.061 190.163 222.193 170.498 228.982 145.504C232.793 131.474 233.728 117.055 233.144 102.519C232.694 91.3165 231.025 80.4168 226.651 70.0144C222.942 61.1945 219.315 52.3107 213.334 44.7261C204.259 33.2173 193.586 23.48 181.454 15.1407C167.389 5.47289 151.994 2.42254 135.386 3.9769C131.497 4.34074 127.658 5.24769 123.801 5.92879C122.538 6.15189 121.406 6.18804 121.053 4.88665ZM173.615 235.233C171.748 233.877 169.743 232.62 167.971 231.093C164.269 227.903 160.694 224.564 157.048 221.309C156.777 221.067 156.289 220.803 156 220.888C152.619 221.88 149.256 222.937 145.528 224.088C150.164 228.4 154.581 232.54 159.046 236.627C159.811 237.327 160.596 237.94 159.972 239.032C159.36 240.102 158.313 240.007 157.429 239.49C156.374 238.874 155.324 238.169 154.463 237.311C150.509 233.366 146.625 229.35 142.7 225.376C142.473 225.146 142.071 224.876 141.807 224.925C138.514 225.546 135.231 226.223 131.485 226.978C136.371 231.942 141.032 236.609 145.606 241.359C147.289 243.107 149.082 243.439 151.263 242.531C151.996 242.226 152.819 242.118 153.611 241.98C160.705 240.746 167.321 238.124 173.615 235.233ZM208.982 213.822C215.22 208.723 220.42 202.53 224.585 195.383C219.409 193.417 215.982 189.285 212.016 185.874C209.259 188.839 206.565 191.738 203.794 194.719C204.407 195.426 204.955 196.154 205.599 196.784C208.133 199.263 210.697 201.711 213.253 204.168C213.919 204.809 214.529 205.658 213.746 206.368C213.273 206.797 212.105 206.919 211.497 206.639C210.455 206.159 209.567 205.301 208.683 204.525C206.02 202.184 203.389 199.806 200.651 197.36C199.104 198.541 196.931 200.199 194.575 201.998C198.843 206.619 203.563 210.589 208.982 213.822ZM186.937 229.273C180.585 225.407 175.839 220.103 170.389 215.483C167.051 216.803 163.55 218.188 159.895 219.632C161.743 221.245 163.407 222.761 165.141 224.194C168.117 226.655 171.159 229.035 174.12 231.514C174.899 232.166 175.48 233.056 176.347 234.065C179.488 232.643 183.094 231.012 186.937 229.273ZM143.596 244.541C139.266 239.836 134.952 235.485 131.06 230.785C128.998 228.295 127.084 226.879 123.734 227.808C122.013 228.285 120.109 228.104 118.288 228.222C117.676 228.262 117.064 228.305 116.146 228.367C121.997 234.628 127.56 240.669 134.147 245.645C134.481 245.898 135.036 246.049 135.446 245.983C138.137 245.548 140.816 245.041 143.596 244.541ZM43.0261 205.046C42.9062 205.11 42.786 205.175 42.6661 205.239C47.0394 211.401 51.3856 217.583 55.8075 223.709C56.7225 224.977 57.7194 226.396 59.0246 227.132C63.0859 229.421 67.3104 231.422 71.4801 233.518C71.9444 233.752 72.4621 233.878 73.1926 234.139C71.7908 232.585 70.5328 231.332 69.4354 229.95C65.126 224.526 60.8695 219.06 56.5842 213.617C56.3232 213.286 56.0271 212.945 55.6737 212.729C51.4658 210.155 47.2441 207.604 43.0261 205.046ZM197.715 222.958C191.27 219.598 186.8 214.151 181.267 209.972C178.759 211.288 176.223 212.619 173.312 214.146C178.049 218.023 182.532 221.667 186.981 225.354C187.834 226.061 188.549 226.936 189.535 227.945C191.996 226.445 194.813 224.727 197.715 222.958ZM92.6018 241.041C87.9811 235.92 83.441 231.078 79.1317 226.039C76.6498 223.137 74.0228 220.699 70.2385 219.611C68.2977 219.054 66.4959 218.015 64.6256 217.206C64.2872 217.06 63.9213 216.978 63.5679 216.867C63.4368 217.029 63.3058 217.191 63.1748 217.352C67.6075 222.285 72.0062 227.25 76.4949 232.132C77.741 233.487 77.8953 234.06 76.449 235.648C81.8616 237.455 87.1718 239.228 92.6018 241.041ZM206.639 216.083C200.691 213.004 196.387 208.281 191.776 203.803C189.402 205.242 186.919 206.747 184.188 208.402C189.612 212.799 194.815 217.017 200.114 221.312C202.229 219.617 204.392 217.884 206.639 216.083ZM19.1928 183.241C21.1725 191.663 40.4553 216.008 48.0694 219.362C43.6982 212.5 39.2922 205.582 34.8807 198.667C34.7379 198.443 34.5582 198.236 34.3674 198.049C29.1956 192.997 24.0199 187.95 19.1928 183.241ZM219.885 175.129C217.901 177.908 216.013 180.554 214.039 183.319C217.868 186.852 221.456 190.611 226.513 192.665C228.047 190.036 229.572 187.422 231.088 184.824C226.381 182.621 223.692 178.334 219.885 175.129ZM225.862 164.341C225.284 165.434 224.7 166.501 224.152 167.585C223.388 169.095 221.873 170.757 222.113 172.097C222.377 173.57 224.198 174.823 225.465 176.044C227.719 178.215 230.067 180.291 232.619 182.63C234.242 179.097 235.688 175.952 236.922 173.266C233.069 170.157 229.514 167.288 225.862 164.341ZM244.473 144.472C244.74 144.373 245.008 144.275 245.276 144.176C245.814 140.026 246.351 135.875 246.884 131.758C242.312 130.623 239.596 127.256 236.087 124.647C235.804 126.996 235.633 129.117 235.272 131.205C234.969 132.955 234.867 134.453 236.331 135.89C239.143 138.651 241.769 141.6 244.473 144.472ZM244.386 147.252C239.656 145.848 237.681 141.391 234.216 138.496C233.469 141.724 232.732 144.83 232.054 147.949C231.98 148.29 232.128 148.831 232.376 149.066C235.381 151.917 237.88 155.347 241.777 157.313C242.65 153.947 243.52 150.592 244.386 147.252ZM230.898 152.273C229.78 155.08 228.646 157.84 227.61 160.637C227.489 160.962 227.794 161.622 228.105 161.901C229.821 163.438 231.574 164.936 233.365 166.385C234.84 167.578 236.385 168.683 238.095 169.976C239.193 166.277 240.191 162.916 241.174 159.602C236.037 159.364 234.27 154.735 230.898 152.273ZM245.659 113.572C245.797 113.501 245.935 113.43 246.073 113.358C245.764 110.672 245.448 107.986 245.149 105.299C244.703 101.293 243.604 97.6667 239.739 95.5428C239.19 95.2412 238.78 94.6907 238.295 94.2678C237.598 93.6597 236.89 93.063 235.944 92.253C236.12 95.0726 236.494 97.4867 236.371 99.8751C236.175 103.669 237.494 106.592 240.464 108.896C241.474 109.68 242.296 110.702 243.247 111.569C244.018 112.273 244.852 112.907 245.659 113.572ZM237.095 109.927C236.87 109.983 236.645 110.04 236.42 110.097C236.42 113.195 236.347 116.296 236.473 119.389C236.504 120.139 237.034 121.045 237.616 121.563C239.702 123.415 241.88 125.169 244.084 126.881C244.849 127.475 245.791 127.841 247.12 128.566C246.878 124.729 246.693 121.423 246.428 118.123C246.4 117.769 245.955 117.377 245.611 117.133C244.176 116.118 242.606 115.271 241.277 114.138C239.776 112.859 238.48 111.341 237.095 109.927ZM241.94 93.0022C240.881 90.1305 239.984 87.6817 239.069 85.2391C238.979 84.9986 238.835 84.7171 238.631 84.5907C237.099 83.6388 235.546 82.7207 234.191 81.9069C234.566 83.8494 235.029 86.2444 235.364 87.9812C237.714 89.7757 239.63 91.2383 241.94 93.0022ZM235.888 77.7876C234.211 72.4657 231.393 67.6066 227.668 63.0095C229.731 68.5688 231.72 73.928 233.646 79.1186C234.277 78.744 235.058 78.2804 235.888 77.7876Z" fill="black"/>
</svg>
