<svg width="31" height="60" viewBox="0 0 31 60" fill="none" xmlns="http://www.w3.org/2000/svg">
<path d="M30.7542 49.9549C29.9984 46.4979 29.1693 43.0351 28.7585 39.5295C27.6657 30.2002 26.8845 20.8337 25.7506 11.5095C25.3794 8.4578 24.4137 5.45818 23.5096 2.49887C23.0217 0.902103 21.7043 0.00139 19.6596 0C19.2336 0.0566425 18.5226 0.0757571 17.8529 0.25194C12.8733 1.56236 7.87796 2.82378 2.93616 4.26625C-0.00299654 5.12388 -0.513474 6.15769 0.431031 9.08191C2.3263 14.9505 4.18334 20.8392 6.34409 26.6122C10.1232 36.7082 14.1059 46.728 18.0368 56.7669C18.7422 58.5687 21.0013 59.6247 22.4493 58.7483C24.8297 57.3076 27.1256 55.7185 29.391 54.0998C30.798 53.0945 31.1316 51.6795 30.7546 49.9545L30.7542 49.9549Z" fill="black"/>
</svg>
