<svg width="50" height="25" viewBox="0 0 50 25" fill="none" xmlns="http://www.w3.org/2000/svg">
<path d="M42.3808 4.48932C41.2962 4.6981 40.5197 4.88866 39.7319 4.9894C38.579 5.13684 37.5949 4.763 37.4855 3.5059C37.3767 2.25617 38.2162 1.8766 39.4212 1.68675C41.3117 1.38905 43.1892 0.888787 45.0044 0.274262C46.1209 -0.103485 46.7098 0.109531 47.4486 1.00782C49.7253 3.77666 49.0425 7.24299 49.7776 10.3655C49.8693 10.7546 49.2335 11.5554 48.759 11.7619C48.3801 11.9267 47.6025 11.613 47.2426 11.2638C46.8612 10.8934 46.6789 10.2483 46.5608 9.69118C46.3079 8.49997 46.1527 7.28794 45.8998 5.73156C44.6703 7.48485 43.6689 8.97463 42.6059 10.419C36.1082 19.2476 27.2553 23.7237 16.4282 24.4985C12.0028 24.8152 7.6237 24.5404 3.35732 23.2151C2.696 23.0096 1.86333 22.8612 1.4784 22.3869C1.02312 21.8265 0.967635 20.941 0.738904 20.1968C1.43458 20.0143 2.2306 19.5132 2.8108 19.6964C12.4692 22.7439 21.664 21.6151 30.4898 16.8141C35.6518 14.0062 39.2992 9.73074 42.3808 4.48932Z" fill="black"/>
</svg>
