<svg width="19" height="51" viewBox="0 0 19 51" fill="none" xmlns="http://www.w3.org/2000/svg">
<path d="M11.6507 44.9807C12.6526 43.6752 13.6416 42.3592 14.6629 41.0689C15.0601 40.5668 15.4541 39.8805 15.9868 39.7123C16.6964 39.4881 17.5398 39.688 18.3258 39.7053C18.2661 40.4716 18.4722 41.413 18.1017 41.9738C16.3646 44.6034 14.5138 47.1634 12.5872 49.6581C12.2408 50.1067 11.2497 50.4514 10.7281 50.2895C9.57095 49.9305 8.41132 49.3641 7.45292 48.6233C5.37487 47.0168 3.40559 45.2674 1.42762 43.5362C0.654431 42.8593 0.375734 41.9759 1.15622 41.1349C1.88736 40.3472 2.7085 40.597 3.44589 41.2152C4.78898 42.3411 6.12374 43.4774 7.80286 44.898C7.80286 40.833 7.69444 37.1536 7.82337 33.483C8.18511 23.2109 9.57719 13.0663 11.8651 3.04548C11.9603 2.62848 11.9576 2.06969 12.2258 1.83687C12.803 1.33577 13.5415 0.656061 14.1885 0.682124C15.2463 0.724866 15.3707 1.69616 15.1977 2.65179C14.3845 7.13871 13.472 11.6117 12.8155 16.1219C11.5142 25.0624 10.9787 34.0609 11.1903 43.098C11.2038 43.6794 11.2622 44.2597 11.2997 44.8407C11.4165 44.8876 11.5336 44.9342 11.6504 44.9811L11.6507 44.9807Z" fill="black"/>
</svg>
