<svg width="33" height="39" viewBox="0 0 33 39" fill="none" xmlns="http://www.w3.org/2000/svg">
<path d="M32.9816 18.0518C32.2087 18.9817 31.8112 19.7028 31.2062 20.1306C30.3378 20.7443 29.3422 21.1981 28.3595 21.6259C23.0862 23.9215 20.4525 28.1696 19.4294 33.6174C19.271 34.4608 19.1612 35.3153 19.0694 36.1691C18.9488 37.2929 18.7563 38.4178 17.3486 38.4827C15.9857 38.546 15.6059 37.4792 15.3091 36.3891C14.9283 34.9904 14.5439 33.591 14.1009 32.2111C13.7072 30.9854 13.2293 29.7869 12.7925 28.5748C11.3038 24.4462 8.51063 21.875 4.10467 21.0911C2.80085 20.8589 1.09637 20.8888 0.823235 19.062C0.5362 17.1403 2.2744 16.7199 3.4837 16.0739C9.14934 13.0478 12.9058 8.5755 14.4515 2.26386C14.6444 1.47643 15.56 0.298745 16.1285 0.305695C16.9545 0.31612 17.8018 1.19739 18.5704 1.79682C18.8255 1.99594 18.9033 2.46089 18.9982 2.82125C20.6582 9.1322 25.036 13.0016 30.5838 15.8813C31.4394 16.3255 32.0684 17.206 32.9819 18.0515L32.9816 18.0518ZM16.8823 29.5405C18.8974 24.1004 22.2157 20.4902 27.3121 18.2836C22.747 15.0682 18.8032 11.7596 16.4288 6.39668C14.4748 11.6999 11.2038 15.2652 6.45136 18.1874C12.5083 19.7827 14.9071 24.1505 16.8823 29.5405Z" fill="black"/>
</svg>
