<svg width="46" height="62" viewBox="0 0 46 62" fill="none" xmlns="http://www.w3.org/2000/svg">
<path d="M30.2681 19.3308C37.3063 21.2059 41.0941 25.8607 42.6269 32.4541C43.782 37.4227 41.5555 41.2806 37.1774 42.2182C34.0384 42.8902 31.2035 42.2394 28.9166 39.8131C24.8832 35.5333 23.5436 30.521 24.7873 24.7931C24.8544 24.4835 24.8926 24.1673 24.9332 23.8528C24.9381 23.8139 24.8752 23.7666 24.7605 23.6089C22.2644 24.1649 19.9456 25.2584 17.9262 26.8576C9.86181 33.2447 4.93878 41.4808 3.6784 51.7577C3.51229 53.1123 3.6572 54.5752 4.00088 55.8989C4.26428 56.9143 5.13755 57.7563 5.60529 58.7394C5.91491 59.3902 5.98649 60.1537 6.16476 60.8671C5.44022 61.0172 4.45402 61.5364 4.04258 61.2448C3.0397 60.5342 2.02916 59.5782 1.51069 58.4884C-0.0280379 55.2532 0.0911548 51.7668 0.80075 48.3707C3.00147 37.8362 8.27895 29.1946 17.3039 23.1772C19.6109 21.6392 22.5084 20.9918 25.1202 19.901C25.6679 19.6724 26.433 19.4128 26.6249 18.9649C29.6196 11.9784 34.8707 6.85691 40.4734 2.01588C41.0823 1.48977 41.6775 0.929236 42.3548 0.505286C43.4157 -0.158787 44.4815 -0.0896318 45.1087 1.08978C45.7189 2.23688 45.1605 2.99409 44.1333 3.74643C38.4454 7.91052 33.5516 12.8033 30.2688 19.3308H30.2681ZM27.7438 28.2219C27.9342 32.4802 29.2356 35.6747 32.1685 38.0513C33.7274 39.3144 36.1106 39.3979 37.7685 38.3234C39.3913 37.2719 39.5765 35.6094 39.3531 33.9011C38.8555 30.0991 36.996 27.0192 33.9707 24.7285C32.9393 23.9473 31.6167 23.4987 30.3678 23.073C29.3562 22.728 28.6414 23.1188 28.4708 24.3344C28.263 25.8137 27.9256 27.2746 27.7438 28.2223V28.2219Z" fill="black"/>
</svg>
