<svg width="64" height="45" viewBox="0 0 64 45" fill="none" xmlns="http://www.w3.org/2000/svg">
<path d="M26.881 21.9422C29.0887 24.2343 31.0656 26.5858 31.6122 29.7443C32.1988 33.1334 31.0823 36.0323 28.6012 38.3192C26.4675 40.2857 23.5975 39.835 22.1675 37.2958C21.4767 36.0688 21.0232 34.618 20.8304 33.2179C20.3487 29.7182 20.6716 26.2599 22.1234 22.8801C19.8021 21.4328 17.4335 21.0731 14.8526 21.7823C6.18843 24.1627 1.39642 32.8964 4.09232 41.4929C4.42453 42.5524 4.67298 43.6039 3.39071 44.0672C2.14005 44.5189 1.54551 43.5901 1.1306 42.576C-3.3247 31.6927 6.04458 17.7875 17.7373 18.0436C19.3524 18.079 21.0395 18.5534 22.5335 19.1962C23.7205 19.7074 24.2466 19.469 25.0532 18.5999C28.1706 15.2417 31.7509 12.4384 36.348 11.5634C38.6178 11.1315 41.0337 11.3445 43.3734 11.4637C44.264 11.5092 44.8092 11.4605 45.4302 10.7398C49.5578 5.94849 55.0004 3.0222 60.5569 0.283897C61.6762 -0.267586 62.7517 -0.0357949 63.2681 1.15682C63.8387 2.4742 62.9373 3.03262 61.8426 3.54275C57.5959 5.52141 53.551 7.83822 49.9974 10.939C49.3118 11.537 48.5595 12.0589 48.1029 12.4117C50.0023 14.6148 51.8416 16.296 53.1232 18.3292C55.7218 22.4513 54.7453 27.0699 51.0243 29.7651C48.2721 31.7584 45.4848 31.2597 43.7671 28.3296C41.5671 24.5766 41.1626 20.5491 42.2694 16.3589C42.3907 15.8999 42.5481 15.4502 42.6874 14.9998C38.0844 13.3023 30.2698 16.7147 26.881 21.9422ZM46.276 16.0806C44.5271 18.9019 44.8489 24.4369 46.946 26.7877C47.2654 27.1457 48.2287 27.2996 48.6908 27.0928C50.379 26.3381 51.4722 24.0362 51.0215 22.2337C50.3418 19.5149 48.7169 17.4838 46.276 16.0806ZM24.968 25.1232C23.9426 28.2775 23.758 31.2667 24.5531 34.277C24.7133 34.8838 25.2818 35.3831 25.662 35.9319C26.2076 35.4777 26.9095 35.1232 27.273 34.553C29.1624 31.5871 28.3763 28.2841 24.968 25.1232Z" fill="black"/>
</svg>
